<svg width="341" height="340" viewBox="0 0 341 340" fill="none" xmlns="http://www.w3.org/2000/svg">
<g filter="url(#filter0_d_5_3)">
<path d="M25.5 264V54H100.5C114.9 54 126.8 56.7 136.2 62.1C145.8 67.3 152.9 74.2 157.5 82.8C162.3 91.4 164.7 100.8 164.7 111V120C164.7 130.2 162.3 139.7 157.5 148.5C152.7 157.3 145.5 164.4 135.9 169.8C126.5 175 114.7 177.6 100.5 177.6H50.7V264H25.5ZM50.7 154.2H97.5C125.5 154.2 139.5 142.2 139.5 118.2V112.8C139.5 102.2 136 93.7 129 87.3C122.2 80.7 111.7 77.4 97.5 77.4H50.7V154.2Z" fill="#00E676"/>
</g>
<g filter="url(#filter1_d_5_3)">
<path d="M161.5 264V54H236.5C250.9 54 262.8 56.7 272.2 62.1C281.8 67.3 288.9 74.2 293.5 82.8C298.3 91.4 300.7 100.8 300.7 111V120C300.7 127.8 298.5 135.6 294.1 143.4C289.9 151.2 283.3 157.2 274.3 161.4V165C280.3 165.8 285 168.2 288.4 172.2C291.8 176 293.5 181.4 293.5 188.4V264H268.3V193.8C268.3 188.6 267.1 184.6 264.7 181.8C262.3 179 258.1 177.6 252.1 177.6H186.7V264H161.5ZM186.7 154.2H233.5C261.5 154.2 275.5 142.2 275.5 118.2V112.8C275.5 102.2 272 93.7 265 87.3C258.2 80.7 247.7 77.4 233.5 77.4H186.7V154.2Z" fill="white"/>
</g>
<g filter="url(#filter2_d_5_3)">
<path d="M104.493 290.391L64.2434 279.704L64.0202 259.737L104.021 248.154L104.15 259.673L71.6096 268.773L71.629 270.501L104.365 278.872L104.493 290.391ZM134.65 314.535L123.572 311.203L151.39 223.143L162.372 226.476L134.65 314.535ZM181.923 289.526L181.794 278.006L214.335 268.906L214.315 267.178L181.58 258.807L181.451 247.288L221.701 257.975L221.924 277.942L181.923 289.526Z" fill="#A7F3D0"/>
</g>
<defs>
<filter id="filter0_d_5_3" x="5.5" y="42" width="187.2" height="258" filterUnits="userSpaceOnUse" color-interpolation-filters="sRGB">
<feFlood flood-opacity="0" result="BackgroundImageFix"/>
<feColorMatrix in="SourceAlpha" type="matrix" values="0 0 0 0 0 0 0 0 0 0 0 0 0 0 0 0 0 0 127 0" result="hardAlpha"/>
<feOffset dx="4" dy="12"/>
<feGaussianBlur stdDeviation="12"/>
<feComposite in2="hardAlpha" operator="out"/>
<feColorMatrix type="matrix" values="0 0 0 0 0 0 0 0 0 0 0 0 0 0 0 0 0 0 0.25098 0"/>
<feBlend mode="normal" in2="BackgroundImageFix" result="effect1_dropShadow_5_3"/>
<feBlend mode="normal" in="SourceGraphic" in2="effect1_dropShadow_5_3" result="shape"/>
</filter>
<filter id="filter1_d_5_3" x="137.5" y="38" width="203.2" height="274" filterUnits="userSpaceOnUse" color-interpolation-filters="sRGB">
<feFlood flood-opacity="0" result="BackgroundImageFix"/>
<feColorMatrix in="SourceAlpha" type="matrix" values="0 0 0 0 0 0 0 0 0 0 0 0 0 0 0 0 0 0 127 0" result="hardAlpha"/>
<feOffset dx="8" dy="16"/>
<feGaussianBlur stdDeviation="16"/>
<feComposite in2="hardAlpha" operator="out"/>
<feColorMatrix type="matrix" values="0 0 0 0 0 0 0 0 0 0 0 0 0 0 0 0 0 0 0.313726 0"/>
<feBlend mode="normal" in2="BackgroundImageFix" result="effect1_dropShadow_5_3"/>
<feBlend mode="normal" in="SourceGraphic" in2="effect1_dropShadow_5_3" result="shape"/>
</filter>
<filter id="filter2_d_5_3" x="57.6221" y="218.361" width="174.7" height="108.957" filterUnits="userSpaceOnUse" color-interpolation-filters="sRGB">
<feFlood flood-opacity="0" result="BackgroundImageFix"/>
<feColorMatrix in="SourceAlpha" type="matrix" values="0 0 0 0 0 0 0 0 0 0 0 0 0 0 0 0 0 0 127 0" result="hardAlpha"/>
<feOffset dx="2" dy="4"/>
<feGaussianBlur stdDeviation="4"/>
<feComposite in2="hardAlpha" operator="out"/>
<feColorMatrix type="matrix" values="0 0 0 0 0 0 0 0 0 0 0 0 0 0 0 0 0 0 0.376471 0"/>
<feBlend mode="normal" in2="BackgroundImageFix" result="effect1_dropShadow_5_3"/>
<feBlend mode="normal" in="SourceGraphic" in2="effect1_dropShadow_5_3" result="shape"/>
</filter>
</defs>
</svg>
